<mxfile host="app.diagrams.net" modified="2021-07-23T14:48:43.342Z" agent="5.0 (Windows)" etag="c0EjMrwNOPGU8WWS__a8" version="14.9.2" type="github">
  <diagram id="w1ZEGMjmR53ewqX5dvrm" name="Page-1">
    <mxGraphModel dx="2000" dy="1152" grid="1" gridSize="10" guides="1" tooltips="1" connect="1" arrows="1" fold="1" page="1" pageScale="1" pageWidth="1169" pageHeight="827" math="0" shadow="0">
      <root>
        <mxCell id="0" />
        <mxCell id="1" parent="0" />
        <mxCell id="4cnv7Ipchus3uO7nBkjI-1" value="REMReM" style="whiteSpace=wrap;html=1;aspect=fixed;sketch=1;rounded=1;fillColor=#d5e8d4;strokeColor=#82b366;" vertex="1" parent="1">
          <mxGeometry x="170" y="110" width="70" height="70" as="geometry" />
        </mxCell>
        <mxCell id="4cnv7Ipchus3uO7nBkjI-5" value="Eiffel Intelligence" style="whiteSpace=wrap;html=1;aspect=fixed;sketch=1;rounded=1;fillColor=#d5e8d4;strokeColor=#82b366;" vertex="1" parent="1">
          <mxGeometry x="380" y="110" width="70" height="70" as="geometry" />
        </mxCell>
        <mxCell id="4cnv7Ipchus3uO7nBkjI-6" value="&lt;div&gt;Protocol&lt;/div&gt;" style="whiteSpace=wrap;html=1;aspect=fixed;sketch=1;rounded=1;fillColor=#d5e8d4;strokeColor=#82b366;" vertex="1" parent="1">
          <mxGeometry x="340" y="260" width="70" height="70" as="geometry" />
        </mxCell>
        <mxCell id="4cnv7Ipchus3uO7nBkjI-7" value="Sepia" style="whiteSpace=wrap;html=1;aspect=fixed;sketch=1;rounded=1;fillColor=#d5e8d4;strokeColor=#82b366;" vertex="1" parent="1">
          <mxGeometry x="500" y="280" width="70" height="70" as="geometry" />
        </mxCell>
      </root>
    </mxGraphModel>
  </diagram>
</mxfile>
